<mxfile host="app.diagrams.net" modified="2023-07-29T09:20:11.903Z" agent="Mozilla/5.0 (Windows NT 10.0; Win64; x64) AppleWebKit/537.36 (KHTML, like Gecko) Chrome/115.0.0.0 Safari/537.36" etag="jNLXuf5sGYzGgYMtaj2r" version="21.6.6" type="github">
  <diagram name="第 1 页" id="giQS1REHOErPSVfHMu5P">
    <mxGraphModel dx="880" dy="446" grid="1" gridSize="10" guides="1" tooltips="1" connect="1" arrows="1" fold="1" page="1" pageScale="1" pageWidth="827" pageHeight="1169" math="0" shadow="0">
      <root>
        <mxCell id="0" />
        <mxCell id="1" parent="0" />
        <mxCell id="InBB00gLZpIJ63OY_sAj-7" value="" style="rounded=1;whiteSpace=wrap;html=1;fillColor=#f5f5f5;fontColor=#333333;strokeColor=#666666;fontSize=18;" vertex="1" parent="1">
          <mxGeometry x="10" y="190" width="810" height="130" as="geometry" />
        </mxCell>
        <mxCell id="InBB00gLZpIJ63OY_sAj-1" value="页表项1&lt;br style=&quot;font-size: 18px;&quot;&gt;4字节" style="rounded=0;whiteSpace=wrap;html=1;fillColor=#f8cecc;strokeColor=#b85450;fontSize=18;" vertex="1" parent="1">
          <mxGeometry x="29" y="230" width="140" height="60" as="geometry" />
        </mxCell>
        <mxCell id="InBB00gLZpIJ63OY_sAj-2" value="页表项2&lt;br style=&quot;font-size: 18px;&quot;&gt;4字节" style="rounded=0;whiteSpace=wrap;html=1;fillColor=#f8cecc;strokeColor=#b85450;fontSize=18;" vertex="1" parent="1">
          <mxGeometry x="170" y="230" width="130" height="60" as="geometry" />
        </mxCell>
        <mxCell id="InBB00gLZpIJ63OY_sAj-3" value="页表项3&lt;br style=&quot;font-size: 18px;&quot;&gt;4字节" style="rounded=0;whiteSpace=wrap;html=1;fillColor=#f8cecc;strokeColor=#b85450;fontSize=18;" vertex="1" parent="1">
          <mxGeometry x="300" y="230" width="140" height="60" as="geometry" />
        </mxCell>
        <mxCell id="InBB00gLZpIJ63OY_sAj-4" value="页表项1023&lt;br style=&quot;font-size: 18px;&quot;&gt;4字节" style="rounded=0;whiteSpace=wrap;html=1;fillColor=#f8cecc;strokeColor=#b85450;fontSize=18;" vertex="1" parent="1">
          <mxGeometry x="520" y="230" width="140" height="60" as="geometry" />
        </mxCell>
        <mxCell id="InBB00gLZpIJ63OY_sAj-5" value="页表项1024&lt;br style=&quot;font-size: 18px;&quot;&gt;4字节" style="rounded=0;whiteSpace=wrap;html=1;fillColor=#f8cecc;strokeColor=#b85450;fontSize=18;" vertex="1" parent="1">
          <mxGeometry x="660" y="230" width="150" height="60" as="geometry" />
        </mxCell>
        <mxCell id="InBB00gLZpIJ63OY_sAj-6" value="。。。。" style="text;html=1;strokeColor=none;fillColor=none;align=center;verticalAlign=middle;whiteSpace=wrap;rounded=0;fontSize=18;" vertex="1" parent="1">
          <mxGeometry x="450" y="245" width="60" height="30" as="geometry" />
        </mxCell>
        <mxCell id="InBB00gLZpIJ63OY_sAj-8" value="一张页表" style="text;html=1;strokeColor=none;fillColor=none;align=center;verticalAlign=middle;whiteSpace=wrap;rounded=0;fontSize=18;fontStyle=1" vertex="1" parent="1">
          <mxGeometry x="370" y="190" width="90" height="30" as="geometry" />
        </mxCell>
      </root>
    </mxGraphModel>
  </diagram>
</mxfile>
